# Blender 3.6.2
# www.blender.org
mtllib ProjectilCap.mtl
o Sphere.001
v 1.811186 -0.246793 -0.180391
v 1.727859 -0.416151 -0.353850
v 1.598875 -0.569516 -0.513711
v 1.429189 -0.700995 -0.653830
v 1.225323 -0.805535 -0.768822
v 0.995111 -0.879119 -0.854270
v 0.747401 -0.918919 -0.906888
v 0.491710 -0.923405 -0.924655
v 0.237867 -0.892406 -0.906888
v 1.807303 -0.321412 0.000000
v 1.720243 -0.562522 0.000000
v 1.587817 -0.782014 0.000000
v 1.415116 -0.971454 0.000000
v 1.208775 -1.123562 0.000000
v 0.976724 -1.232491 0.000000
v 0.727881 -1.294057 0.000000
v 0.471808 -1.305892 0.000000
v 0.218347 -1.267544 0.000000
v 1.811186 -0.246793 0.180391
v 1.727859 -0.416151 0.353850
v 1.598875 -0.569516 0.513711
v 1.429189 -0.700995 0.653830
v 1.225323 -0.805535 0.768822
v 0.995111 -0.879119 0.854269
v 0.747401 -0.918919 0.906888
v 0.491710 -0.923405 0.924655
v 0.237867 -0.892406 0.906888
v 1.820559 -0.066645 0.255112
v 1.746247 -0.062779 0.500420
v 1.625569 -0.056499 0.726497
v 1.463165 -0.048049 0.924655
v 1.265274 -0.037752 1.087279
v 1.039503 -0.026004 1.208119
v 0.794526 -0.013257 1.282533
v 0.539759 0.000000 1.307659
v 0.284992 0.013257 1.282533
v 1.829933 0.113502 0.180391
v 1.764634 0.290593 0.353850
v 1.652263 0.456517 0.513711
v 1.497140 0.604898 0.653830
v 1.305225 0.730032 0.768822
v 1.083894 0.827112 0.854269
v 0.841652 0.892406 0.906888
v 0.587808 0.923405 0.924655
v 0.332118 0.918919 0.906888
v 1.833816 0.188122 0.000000
v 1.772250 0.436965 0.000000
v 1.663321 0.669016 0.000000
v 1.511213 0.875357 0.000000
v 1.321773 1.048058 0.000000
v 1.102281 1.180484 0.000000
v 0.861172 1.267543 0.000000
v 0.607710 1.305892 0.000000
v 0.351638 1.294057 0.000000
v 1.829933 0.113502 -0.180391
v 1.764634 0.290593 -0.353850
v 1.652263 0.456517 -0.513711
v 1.497140 0.604898 -0.653830
v 1.305225 0.730032 -0.768822
v 1.083894 0.827112 -0.854269
v 0.841652 0.892406 -0.906888
v 0.587808 0.923405 -0.924655
v 0.332118 0.918919 -0.906888
v 1.845652 -0.067951 0.000000
v 1.820559 -0.066645 -0.255112
v 1.746247 -0.062779 -0.500420
v 1.625569 -0.056499 -0.726497
v 1.463165 -0.048049 -0.924655
v 1.265274 -0.037752 -1.087279
v 1.039503 -0.026004 -1.208119
v 0.794526 -0.013257 -1.282533
v 0.539759 0.000000 -1.307659
v 0.284992 0.013257 -1.282533
vn 0.8544 -0.2364 -0.4627
vn 0.7334 -0.2927 -0.6136
vn 0.5875 -0.3359 -0.7362
vn 0.4243 -0.3657 -0.8284
vn 0.2503 -0.3820 -0.8896
vn 0.0707 -0.3853 -0.9201
vn 0.9909 -0.0922 -0.0979
vn -0.1103 -0.3759 -0.9201
vn 0.9426 -0.1686 -0.2882
vn -0.1383 -0.9141 -0.3811
vn 0.9338 -0.3372 -0.1194
vn 0.8404 -0.5070 -0.1916
vn 0.7147 -0.6516 -0.2541
vn 0.5651 -0.7666 -0.3049
vn 0.3991 -0.8503 -0.3431
vn 0.2233 -0.9024 -0.3685
vn 0.0427 -0.9235 -0.3811
vn 0.9879 -0.1495 -0.0406
vn 0.3991 -0.8503 0.3431
vn 0.2233 -0.9024 0.3685
vn 0.0427 -0.9235 0.3811
vn 0.9879 -0.1495 0.0406
vn -0.1383 -0.9141 0.3811
vn 0.9338 -0.3372 0.1194
vn 0.8404 -0.5070 0.1916
vn 0.7147 -0.6516 0.2541
vn 0.5651 -0.7666 0.3049
vn 0.9426 -0.1686 0.2882
vn 0.8544 -0.2364 0.4627
vn 0.7334 -0.2927 0.6136
vn 0.5875 -0.3359 0.7362
vn 0.4243 -0.3657 0.8284
vn 0.2503 -0.3820 0.8896
vn 0.0707 -0.3853 0.9201
vn 0.9909 -0.0922 0.0979
vn -0.1103 -0.3759 0.9201
vn 0.4600 0.3197 0.8284
vn 0.2886 0.3540 0.8896
vn 0.1103 0.3759 0.9201
vn 0.9951 -0.0112 0.0979
vn -0.0707 0.3853 0.9201
vn 0.9550 0.0698 0.2882
vn 0.8744 0.1464 0.4627
vn 0.7598 0.2150 0.6136
vn 0.6192 0.2731 0.7362
vn 0.8884 0.4171 0.1916
vn 0.7785 0.5739 0.2541
vn 0.6416 0.7038 0.3049
vn 0.4852 0.8043 0.3431
vn 0.3157 0.8744 0.3685
vn 0.1383 0.9141 0.3811
vn 0.9981 0.0461 0.0406
vn -0.0427 0.9235 0.3811
vn 0.9638 0.2384 0.1194
vn 0.3157 0.8744 -0.3685
vn 0.1383 0.9141 -0.3811
vn 0.9981 0.0461 -0.0406
vn -0.0427 0.9235 -0.3811
vn 0.9638 0.2384 -0.1194
vn 0.8884 0.4171 -0.1916
vn 0.7785 0.5739 -0.2541
vn 0.6416 0.7038 -0.3049
vn 0.4852 0.8043 -0.3431
vn 0.8744 0.1464 -0.4627
vn 0.7598 0.2150 -0.6136
vn 0.6192 0.2731 -0.7362
vn 0.4600 0.3197 -0.8284
vn 0.2886 0.3540 -0.8896
vn 0.1103 0.3759 -0.9201
vn 0.9951 -0.0112 -0.0979
vn -0.0707 0.3853 -0.9201
vn 0.9550 0.0698 -0.2882
vt 0.750000 0.659015
vt 0.750000 0.767629
vt 0.625000 0.767629
vt 0.625000 0.659015
vt 0.750000 0.550401
vt 0.625000 0.550401
vt 0.750000 0.441787
vt 0.625000 0.441787
vt 0.750000 0.333173
vt 0.625000 0.333173
vt 0.750000 0.224558
vt 0.625000 0.224558
vt 0.750000 0.115944
vt 0.625000 0.115944
vt 0.750000 0.876244
vt 0.687500 0.984858
vt 0.625000 0.876244
vt 0.750000 0.007330
vt 0.625000 0.007330
vt 0.500000 0.115944
vt 0.500000 0.007330
vt 0.500000 0.876244
vt 0.500000 0.767629
vt 0.500000 0.659015
vt 0.500000 0.550401
vt 0.500000 0.441787
vt 0.500000 0.333173
vt 0.500000 0.224558
vt 0.562500 0.984858
vt 0.375000 0.441787
vt 0.375000 0.333173
vt 0.375000 0.224558
vt 0.375000 0.115944
vt 0.437500 0.984858
vt 0.375000 0.876244
vt 0.375000 0.007330
vt 0.375000 0.767629
vt 0.375000 0.659015
vt 0.375000 0.550401
vt 0.250000 0.876244
vt 0.250000 0.767629
vt 0.250000 0.659015
vt 0.250000 0.550401
vt 0.250000 0.441787
vt 0.250000 0.333173
vt 0.250000 0.224558
vt 0.250000 0.115944
vt 0.312500 0.984858
vt 0.250000 0.007330
vt 0.125000 0.441787
vt 0.125000 0.333173
vt 0.125000 0.224558
vt 0.125000 0.115944
vt 0.187500 0.984858
vt 0.125000 0.876244
vt 0.125000 0.007330
vt 0.125000 0.767629
vt 0.125000 0.659015
vt 0.125000 0.550401
vt 0.000000 0.767629
vt 0.000000 0.659015
vt 0.000000 0.550401
vt 0.000000 0.441787
vt 0.000000 0.333173
vt 0.000000 0.224558
vt 0.000000 0.115944
vt 0.062500 0.984858
vt 0.000000 0.876244
vt 0.000000 0.007330
vt 1.000000 0.224558
vt 1.000000 0.333173
vt 0.875000 0.333173
vt 0.875000 0.224558
vt 1.000000 0.115944
vt 0.875000 0.115944
vt 1.000000 0.876244
vt 0.937500 0.984858
vt 0.875000 0.876244
vt 1.000000 0.007330
vt 0.875000 0.007330
vt 1.000000 0.767629
vt 0.875000 0.767629
vt 1.000000 0.659015
vt 0.875000 0.659015
vt 1.000000 0.550401
vt 0.875000 0.550401
vt 1.000000 0.441787
vt 0.875000 0.441787
vt 0.812500 0.984858
s 0
f 67/1/1 66/2/1 2/3/1 3/4/1
f 68/5/2 67/1/2 3/4/2 4/6/2
f 69/7/3 68/5/3 4/6/3 5/8/3
f 70/9/4 69/7/4 5/8/4 6/10/4
f 71/11/5 70/9/5 6/10/5 7/12/5
f 72/13/6 71/11/6 7/12/6 8/14/6
f 65/15/7 64/16/7 1/17/7
f 73/18/8 72/13/8 8/14/8 9/19/8
f 66/2/9 65/15/9 1/17/9 2/3/9
f 9/19/10 8/14/10 17/20/10 18/21/10
f 2/3/11 1/17/11 10/22/11 11/23/11
f 3/4/12 2/3/12 11/23/12 12/24/12
f 4/6/13 3/4/13 12/24/13 13/25/13
f 5/8/14 4/6/14 13/25/14 14/26/14
f 6/10/15 5/8/15 14/26/15 15/27/15
f 7/12/16 6/10/16 15/27/16 16/28/16
f 8/14/17 7/12/17 16/28/17 17/20/17
f 1/17/18 64/29/18 10/22/18
f 15/27/19 14/26/19 23/30/19 24/31/19
f 16/28/20 15/27/20 24/31/20 25/32/20
f 17/20/21 16/28/21 25/32/21 26/33/21
f 10/22/22 64/34/22 19/35/22
f 18/21/23 17/20/23 26/33/23 27/36/23
f 11/23/24 10/22/24 19/35/24 20/37/24
f 12/24/25 11/23/25 20/37/25 21/38/25
f 13/25/26 12/24/26 21/38/26 22/39/26
f 14/26/27 13/25/27 22/39/27 23/30/27
f 20/37/28 19/35/28 28/40/28 29/41/28
f 21/38/29 20/37/29 29/41/29 30/42/29
f 22/39/30 21/38/30 30/42/30 31/43/30
f 23/30/31 22/39/31 31/43/31 32/44/31
f 24/31/32 23/30/32 32/44/32 33/45/32
f 25/32/33 24/31/33 33/45/33 34/46/33
f 26/33/34 25/32/34 34/46/34 35/47/34
f 19/35/35 64/48/35 28/40/35
f 27/36/36 26/33/36 35/47/36 36/49/36
f 33/45/37 32/44/37 41/50/37 42/51/37
f 34/46/38 33/45/38 42/51/38 43/52/38
f 35/47/39 34/46/39 43/52/39 44/53/39
f 28/40/40 64/54/40 37/55/40
f 36/49/41 35/47/41 44/53/41 45/56/41
f 29/41/42 28/40/42 37/55/42 38/57/42
f 30/42/43 29/41/43 38/57/43 39/58/43
f 31/43/44 30/42/44 39/58/44 40/59/44
f 32/44/45 31/43/45 40/59/45 41/50/45
f 39/58/46 38/57/46 47/60/46 48/61/46
f 40/59/47 39/58/47 48/61/47 49/62/47
f 41/50/48 40/59/48 49/62/48 50/63/48
f 42/51/49 41/50/49 50/63/49 51/64/49
f 43/52/50 42/51/50 51/64/50 52/65/50
f 44/53/51 43/52/51 52/65/51 53/66/51
f 37/55/52 64/67/52 46/68/52
f 45/56/53 44/53/53 53/66/53 54/69/53
f 38/57/54 37/55/54 46/68/54 47/60/54
f 52/70/55 51/71/55 60/72/55 61/73/55
f 53/74/56 52/70/56 61/73/56 62/75/56
f 46/76/57 64/77/57 55/78/57
f 54/79/58 53/74/58 62/75/58 63/80/58
f 47/81/59 46/76/59 55/78/59 56/82/59
f 48/83/60 47/81/60 56/82/60 57/84/60
f 49/85/61 48/83/61 57/84/61 58/86/61
f 50/87/62 49/85/62 58/86/62 59/88/62
f 51/71/63 50/87/63 59/88/63 60/72/63
f 57/84/64 56/82/64 66/2/64 67/1/64
f 58/86/65 57/84/65 67/1/65 68/5/65
f 59/88/66 58/86/66 68/5/66 69/7/66
f 60/72/67 59/88/67 69/7/67 70/9/67
f 61/73/68 60/72/68 70/9/68 71/11/68
f 62/75/69 61/73/69 71/11/69 72/13/69
f 55/78/70 64/89/70 65/15/70
f 63/80/71 62/75/71 72/13/71 73/18/71
f 56/82/72 55/78/72 65/15/72 66/2/72
